<svg width="20" height="22" fill="none" xmlns="http://www.w3.org/2000/svg"><path fill-rule="evenodd" clip-rule="evenodd" d="M13.941 10.073a1.57 1.57 0 00-.53.132l-2.694-2.962a1.96 1.96 0 00.12-.582 3.371 3.371 0 01.854-2.086L15.838.016l.83.912-3.18 3.495.83.912 3.179-3.495.83.912-3.18 3.495.83.912 3.179-3.495.829.911-4.147 4.559a2.818 2.818 0 01-1.897.939zm5.544 8.633c.687.754.687 1.981 0 2.736a1.665 1.665 0 01-2.488 0l-6.617-8.134-.944 1.038L2.28 6.477c-.667-.733-1.064-1.728-1.149-2.878-.074-1.008.09-2.111.477-3.19L1.754 0h.716l9.168 10.079 7.847 8.627zM8.608 15.259l-5.606 6.163c-.708.779-1.836.716-2.488 0-.685-.755-.685-1.982 0-2.736l5.606-6.163 2.488 2.736z" fill="#fff"/></svg>