<svg width="86" height="16" fill="none" xmlns="http://www.w3.org/2000/svg"><path d="M13 6.055c0-.235-.25-.328-.438-.36l-3.921-.57L6.883 1.57c-.07-.148-.203-.32-.383-.32s-.313.172-.383.32L4.36 5.125l-3.921.57C.241 5.727 0 5.82 0 6.055c0 .14.102.273.195.375L3.04 9.195l-.672 3.907c-.008.054-.015.101-.015.156 0 .203.101.39.328.39a.66.66 0 00.312-.093L6.5 11.71l3.508 1.844a.634.634 0 00.312.093c.227 0 .32-.187.32-.39 0-.055 0-.102-.007-.156L9.96 9.195l2.836-2.765c.101-.102.203-.235.203-.375zm18 0c0-.235-.25-.328-.438-.36l-3.921-.57-1.758-3.555c-.07-.148-.203-.32-.383-.32s-.313.172-.383.32L22.36 5.125l-3.922.57c-.195.032-.437.125-.437.36 0 .14.102.273.195.375l2.844 2.765-.672 3.907c-.008.054-.015.101-.015.156 0 .203.101.39.328.39a.66.66 0 00.312-.093L24.5 11.71l3.508 1.844a.634.634 0 00.312.093c.227 0 .32-.187.32-.39 0-.055 0-.102-.007-.156l-.672-3.907 2.836-2.765c.101-.102.203-.235.203-.375zm18 0c0-.235-.25-.328-.438-.36l-3.921-.57-1.758-3.555c-.07-.148-.203-.32-.383-.32s-.313.172-.383.32L40.36 5.125l-3.922.57c-.195.032-.437.125-.437.36 0 .14.102.273.195.375l2.844 2.765-.672 3.907c-.008.054-.015.101-.015.156 0 .203.101.39.328.39a.66.66 0 00.312-.093L42.5 11.71l3.508 1.844a.634.634 0 00.312.093c.227 0 .32-.187.32-.39 0-.055 0-.102-.007-.156l-.672-3.907 2.836-2.765c.101-.102.203-.235.203-.375zm18 0c0-.235-.25-.328-.438-.36l-3.921-.57-1.758-3.555c-.07-.148-.203-.32-.383-.32s-.313.172-.383.32L58.36 5.125l-3.922.57c-.195.032-.437.125-.437.36 0 .14.102.273.195.375l2.844 2.765-.672 3.907c-.008.054-.015.101-.015.156 0 .203.101.39.328.39a.66.66 0 00.312-.093L60.5 11.71l3.508 1.844a.634.634 0 00.312.093c.227 0 .32-.187.32-.39 0-.055 0-.102-.007-.156l-.672-3.907 2.836-2.765c.101-.102.203-.235.203-.375zm18 0c0-.235-.25-.328-.438-.36l-3.921-.57-1.758-3.555c-.07-.148-.203-.32-.383-.32s-.313.172-.383.32L76.36 5.125l-3.921.57c-.196.032-.438.125-.438.36 0 .14.102.273.195.375l2.844 2.765-.672 3.907c-.008.054-.015.101-.015.156 0 .203.101.39.328.39a.66.66 0 00.312-.093L78.5 11.71l3.508 1.844a.634.634 0 00.312.093c.227 0 .32-.187.32-.39 0-.055 0-.102-.007-.156l-.672-3.907 2.836-2.765c.101-.102.203-.235.203-.375z" fill="#F3C64C"/></svg>