<svg width="45" height="44" fill="none" xmlns="http://www.w3.org/2000/svg"><path d="M43.715 34.513a4.233 4.233 0 010 6.075l-.01.009-3.005 2.905a1.801 1.801 0 01-1.24.498c-.456 0-.904-.172-1.247-.507a1.688 1.688 0 01.017-2.432l1.758-1.702H11.776c-3.876 0-7.031-3.085-7.031-6.875V4.864L2.987 6.548A1.77 1.77 0 01.51 6.531a1.678 1.678 0 01.017-2.423l2.97-2.862c1.706-1.65 4.492-1.65 6.197 0l2.962 2.862c.694.67.694 1.753.018 2.432-.343.344-.8.515-1.249.515-.448 0-.887-.163-1.23-.498L8.26 4.692v27.792c0 1.9 1.574 3.438 3.516 3.438h28.388l-1.934-1.874a1.695 1.695 0 01-.017-2.432A1.79 1.79 0 0140.7 31.6l3.015 2.914c-.01 0-.01 0 0 0zM39.725 0H16.96c-.975 0-1.757.773-1.757 1.727 0 .946.79 1.71 1.757 1.71h22.764c.966 0 1.757.774 1.757 1.72V27.5c0 .945.782 1.719 1.75 1.719.975 0 1.766-.765 1.766-1.719V5.156C44.998 2.312 42.634 0 39.725 0zM25.837 29.468c.967 0 1.758-.773 1.758-1.719v-7.648c0-2.604-2.17-4.727-4.834-4.727a4.858 4.858 0 00-3.076 1.083 4.857 4.857 0 00-3.076-1.083c-.668 0-1.31.138-1.89.378a1.767 1.767 0 00-1.186-.455c-.967 0-1.758.773-1.758 1.719v10.742c0 .945.791 1.719 1.758 1.719.966 0 1.757-.774 1.757-1.72v-7.656c0-.713.59-1.29 1.319-1.29.73 0 1.318.576 1.318 1.29v7.657c0 .945.791 1.719 1.758 1.719s1.758-.774 1.758-1.72v-7.656c0-.713.589-1.29 1.318-1.29.73 0 1.318.576 1.318 1.29v7.648c0 .946.791 1.719 1.758 1.719zm7.98-20.187h-.052c-2.233 0-4.052 1.78-4.052 3.97 0 .946.791 1.72 1.758 1.72s1.758-.774 1.758-1.72a.54.54 0 01.536-.532h.052a.54.54 0 01.537.498c-.036.13-.308.902-1.987 2.716-1.046 1.126-2.074 2.037-2.083 2.045a1.692 1.692 0 00-.457 1.89c.264.663.914 1.1 1.644 1.1h4.746c.966 0 1.757-.773 1.757-1.718s-.79-1.719-1.757-1.719h-.607c1.565-1.796 2.268-3.136 2.268-4.28-.009-2.19-1.828-3.97-4.06-3.97z" fill="#4DA1F4"/></svg>