<svg width="16" height="16" fill="none" xmlns="http://www.w3.org/2000/svg"><path d="M15.438 5.156a854.14 854.14 0 01-4.22-3.406C10.532 1.219 9.345 0 8 0 6.625 0 5.469 1.188 4.75 1.75A467.08 467.08 0 01.531 5.156 1.455 1.455 0 000 6.313V14.5c0 .844.656 1.5 1.5 1.5h13a1.5 1.5 0 001.5-1.5V6.312c0-.468-.219-.875-.563-1.156zm-.938 9.157c0 .124-.094.187-.188.187H1.688c-.125 0-.188-.063-.188-.188V6.407c0-.062 0-.125.063-.156.5-.406 3.406-2.719 4.125-3.313C6.25 2.47 7.25 1.5 8 1.5c.719 0 1.719 1 2.281 1.438.719.593 3.625 2.906 4.125 3.312a.172.172 0 01.094.156v7.907zm-1-5.844l-.5-.594c-.125-.156-.344-.188-.531-.031a86.479 86.479 0 01-2.188 1.75C9.72 10.063 8.72 11 8 11c-.75 0-1.75-.969-2.313-1.406A86.517 86.517 0 013.5 7.844c-.188-.157-.406-.125-.531.031l-.5.594A.39.39 0 002.53 9c.906.719 1.875 1.5 2.219 1.781.688.531 1.875 1.719 3.25 1.719 1.344 0 2.5-1.156 3.219-1.719.344-.312 1.312-1.062 2.219-1.781a.39.39 0 00.062-.531z" fill="#4DA1F4"/></svg>