<svg width="19" height="20" viewBox="0 0 19 20" fill="none" xmlns="http://www.w3.org/2000/svg">
<path fill-rule="evenodd" clip-rule="evenodd" d="M8.569 0C13.294 0 17.138 4.04668 17.138 9.01998C17.138 10.7821 16.654 12.4282 15.821 13.8192L18.443 16.579C19.186 17.3615 19.186 18.6313 18.443 19.4139C17.699 20.1954 16.493 20.1954 15.75 19.4139L13.128 16.653C11.807 17.5306 10.243 18.04 8.569 18.04C3.844 18.04 0 13.9933 0 9.01998C0 4.04668 3.844 0 8.569 0ZM8.569 16.0346C12.244 16.0346 15.233 12.8875 15.233 9.01998C15.233 5.15141 12.244 2.00433 8.569 2.00433C4.894 2.00433 1.904 5.15141 1.904 9.01998C1.904 12.8875 4.894 16.0346 8.569 16.0346Z" fill="#222222"/>
</svg>
