<svg width="163" height="59" fill="none" xmlns="http://www.w3.org/2000/svg"><path fill-rule="evenodd" clip-rule="evenodd" d="M47.491 19.984v4.774h-3.164V10.999H54v8.985h-6.509zm-1.582 10.599H27.067c-.872 0-1.582.713-1.582 1.589s.71 1.589 1.582 1.589h12.408c2.617 0 4.746 2.137 4.746 4.765 0 2.628-2.129 4.765-4.746 4.765H23.903c-.872 0-1.582.712-1.582 1.589 0 .876.71 1.588 1.582 1.588h12.408c2.617 0 4.746 2.138 4.746 4.766 0 2.627-2.129 4.765-4.746 4.765H9.523v-3.177h26.788c.873 0 1.582-.713 1.582-1.588 0-.876-.709-1.589-1.582-1.589H23.903c-2.616 0-4.745-2.138-4.745-4.765 0-2.628 2.129-4.766 4.745-4.766h15.572a1.588 1.588 0 000-3.177H27.067c-2.616 0-4.745-2.138-4.745-4.765s2.129-4.766 4.745-4.766h18.842v3.177zM10.532 49.311l-1.009.839-1.009-.839a39.152 39.152 0 01-4.157-4.134C1.466 41.827 0 38.836 0 36.286c0-5.272 4.272-9.562 9.523-9.562 5.251 0 9.523 4.29 9.522 9.562 0 2.55-1.465 5.541-4.356 8.891a39.26 39.26 0 01-4.157 4.134zm-1.009-15.97a2.943 2.943 0 00-2.934 2.945 2.943 2.943 0 002.934 2.946 2.942 2.942 0 002.933-2.946 2.942 2.942 0 00-2.933-2.945z" fill="#F44153"/><path d="M78.968 36c-.696 0-1.248-.192-1.656-.576-.384-.384-.576-.924-.576-1.62V12.816c0-.696.192-1.236.576-1.62.408-.384.96-.576 1.656-.576h12.996c.696 0 1.236.156 1.62.468.384.312.576.756.576 1.332 0 .6-.192 1.068-.576 1.404-.384.312-.924.468-1.62.468H81.272v6.984h9.972c.696 0 1.236.156 1.62.468.384.312.576.768.576 1.368 0 .576-.192 1.02-.576 1.332-.384.312-.924.468-1.62.468h-9.972v7.416h10.692c.696 0 1.236.168 1.62.504.384.312.576.768.576 1.368 0 .576-.192 1.02-.576 1.332-.384.312-.924.468-1.62.468H78.968zm25.483.288c-1.752 0-3.3-.372-4.644-1.116-1.32-.744-2.34-1.8-3.06-3.168-.72-1.368-1.08-2.964-1.08-4.788 0-1.824.372-3.432 1.116-4.824.768-1.416 1.836-2.508 3.204-3.276 1.368-.768 2.94-1.152 4.716-1.152.936 0 1.872.132 2.808.396.96.264 1.8.624 2.52 1.08.768.504 1.152 1.14 1.152 1.908 0 .528-.132.96-.396 1.296-.24.312-.564.468-.972.468-.264 0-.54-.06-.828-.18a7.25 7.25 0 01-.864-.432 8.549 8.549 0 00-1.512-.72c-.48-.192-1.032-.288-1.656-.288-1.488 0-2.64.492-3.456 1.476-.792.96-1.188 2.352-1.188 4.176 0 1.8.396 3.192 1.188 4.176.816.96 1.968 1.44 3.456 1.44.6 0 1.128-.084 1.584-.252.48-.192 1.008-.444 1.584-.756.36-.216.672-.372.936-.468a1.9 1.9 0 01.792-.18c.384 0 .708.168.972.504.264.336.396.756.396 1.26 0 .408-.096.768-.288 1.08-.168.288-.456.552-.864.792-.744.48-1.608.864-2.592 1.152a11.62 11.62 0 01-3.024.396zm16.498-18.324c2.448 0 4.26.612 5.436 1.836 1.2 1.2 1.8 3.036 1.8 5.508v8.784c0 .648-.192 1.164-.576 1.548-.384.36-.912.54-1.584.54-.624 0-1.14-.192-1.548-.576-.384-.384-.576-.888-.576-1.512V33.3a4.67 4.67 0 01-1.944 2.196c-.864.528-1.872.792-3.024.792-1.176 0-2.244-.24-3.204-.72s-1.716-1.14-2.268-1.98a5.003 5.003 0 01-.828-2.808c0-1.296.324-2.316.972-3.06.672-.744 1.752-1.284 3.24-1.62 1.488-.336 3.54-.504 6.156-.504h.9v-.828c0-1.176-.252-2.028-.756-2.556-.504-.552-1.32-.828-2.448-.828-.696 0-1.404.108-2.124.324-.72.192-1.572.48-2.556.864-.624.312-1.08.468-1.368.468-.432 0-.792-.156-1.08-.468-.264-.312-.396-.72-.396-1.224 0-.408.096-.756.288-1.044.216-.312.564-.6 1.044-.864.84-.456 1.836-.816 2.988-1.08a15.75 15.75 0 013.456-.396zm-1.116 15.084c1.2 0 2.172-.396 2.916-1.188.768-.816 1.152-1.86 1.152-3.132v-.756h-.648c-1.608 0-2.856.072-3.744.216-.888.144-1.524.396-1.908.756-.384.36-.576.852-.576 1.476 0 .768.264 1.404.792 1.908.552.48 1.224.72 2.016.72zm21.17-.18c1.2.072 1.8.612 1.8 1.62 0 .576-.24 1.02-.72 1.332-.456.288-1.116.408-1.98.36l-.972-.072c-4.032-.288-6.048-2.448-6.048-6.48V21.78h-1.8c-.648 0-1.152-.144-1.512-.432-.336-.288-.504-.708-.504-1.26s.168-.972.504-1.26c.36-.288.864-.432 1.512-.432h1.8v-3.312c0-.648.204-1.164.612-1.548.408-.384.96-.576 1.656-.576.672 0 1.212.192 1.62.576.408.384.612.9.612 1.548v3.312h3.06c.648 0 1.14.144 1.476.432.36.288.54.708.54 1.26s-.18.972-.54 1.26c-.336.288-.828.432-1.476.432h-3.06v8.172c0 1.776.816 2.724 2.448 2.844l.972.072zm10.877-14.904c2.448 0 4.26.612 5.436 1.836 1.2 1.2 1.8 3.036 1.8 5.508v8.784c0 .648-.192 1.164-.576 1.548-.384.36-.912.54-1.584.54-.624 0-1.14-.192-1.548-.576-.384-.384-.576-.888-.576-1.512V33.3a4.67 4.67 0 01-1.944 2.196c-.864.528-1.872.792-3.024.792-1.176 0-2.244-.24-3.204-.72s-1.716-1.14-2.268-1.98a5.003 5.003 0 01-.828-2.808c0-1.296.324-2.316.972-3.06.672-.744 1.752-1.284 3.24-1.62 1.488-.336 3.54-.504 6.156-.504h.9v-.828c0-1.176-.252-2.028-.756-2.556-.504-.552-1.32-.828-2.448-.828-.696 0-1.404.108-2.124.324-.72.192-1.572.48-2.556.864-.624.312-1.08.468-1.368.468-.432 0-.792-.156-1.08-.468-.264-.312-.396-.72-.396-1.224 0-.408.096-.756.288-1.044.216-.312.564-.6 1.044-.864.84-.456 1.836-.816 2.988-1.08a15.75 15.75 0 013.456-.396zm-1.116 15.084c1.2 0 2.172-.396 2.916-1.188.768-.816 1.152-1.86 1.152-3.132v-.756h-.648c-1.608 0-2.856.072-3.744.216-.888.144-1.524.396-1.908.756-.384.36-.576.852-.576 1.476 0 .768.264 1.404.792 1.908.552.48 1.224.72 2.016.72zm-75.742 18.01c0 2.73 2.282 4.942 5.096 4.942 1.204 0 2.31-.406 3.164-1.064.154-.112.182-.364.042-.49-.098-.168-.322-.196-.49-.084-.728.616-1.68.952-2.716.952-2.45 0-4.41-1.918-4.41-4.256 0-2.394 1.96-4.312 4.41-4.312 1.036 0 1.988.364 2.744.952.14.112.364.098.476-.07.126-.126.098-.364-.056-.49a5.197 5.197 0 00-3.164-1.078c-2.814.014-5.096 2.212-5.096 4.998zm11.49 2.128a2.802 2.802 0 002.772 2.8c.854 0 1.61-.392 2.128-.98v.448a2.575 2.575 0 01-3.71 2.282c-.168-.042-.35 0-.434.168-.084.154-.014.35.14.448.434.196.91.322 1.414.322 1.806 0 3.262-1.428 3.262-3.22v-5.992a.27.27 0 00-.042-.14c-.014-.042-.056-.084-.084-.112a.856.856 0 00-.168-.07h-.084c-.014 0-.028.014-.042.014h-.028a.252.252 0 00-.126.084c-.014 0-.014.014-.028.014 0 .014-.014.028-.014.042-.042.042-.056.112-.056.168v3.724a2.124 2.124 0 01-2.128 2.114 2.1 2.1 0 01-2.1-2.114v-3.724c0-.182-.154-.322-.35-.322a.326.326 0 00-.322.322v3.724zm11.983-4.046h-.883v-2.548c0-.168-.181-.336-.363-.336a.361.361 0 00-.337.336v2.548h-.854c-.336 0-.336.168-.336.336s0 .336.337.336h.853v4.998c0 .686.518 1.19 1.204 1.19.168 0 .35-.168.35-.336s-.181-.35-.35-.35c-.168 0-.504-.168-.504-.504v-4.998h.883a.361.361 0 00.335-.336.361.361 0 00-.335-.336zm4.093 4.046a2.802 2.802 0 002.772 2.8c.854 0 1.61-.392 2.128-.98v.448a2.575 2.575 0 01-3.71 2.282c-.168-.042-.35 0-.434.168-.084.154-.014.35.14.448.434.196.91.322 1.414.322 1.806 0 3.262-1.428 3.262-3.22v-5.992a.27.27 0 00-.042-.14c-.014-.042-.056-.084-.084-.112a.856.856 0 00-.168-.07h-.084c-.014 0-.028.014-.042.014h-.028a.252.252 0 00-.126.084c-.014 0-.014.014-.028.014 0 .014-.014.028-.014.042-.042.042-.056.112-.056.168v3.724a2.124 2.124 0 01-2.128 2.114 2.1 2.1 0 01-2.1-2.114v-3.724c0-.182-.154-.322-.35-.322a.326.326 0 00-.322.322v3.724zm15.396 2.478a.344.344 0 00.686 0v-3.85l2.422-.028A2.784 2.784 0 00123.878 49c0-1.54-1.246-2.8-2.786-2.8h-2.772a.34.34 0 00-.336.336v9.128zm.686-4.536v-4.242h2.422c1.162 0 2.114.952 2.114 2.114a2.142 2.142 0 01-2.114 2.128h-2.422zm7.915 1.442c0 1.862 1.456 3.43 3.248 3.43 1.806 0 3.248-1.568 3.248-3.43s-1.442-3.43-3.248-3.43c-1.792 0-3.248 1.568-3.248 3.43zm.672 0c0-1.526 1.176-2.772 2.576-2.772 1.4 0 2.576 1.246 2.576 2.772 0 1.526-1.176 2.758-2.576 2.758-1.4 0-2.576-1.232-2.576-2.758zm9.246 3.094c0 .196.154.336.35.336.168 0 .322-.14.322-.336v-3.01c0-.028 0-.056.028-.112.098-.28.364-.98.826-1.596.476-.616 1.092-1.12 1.988-1.12a.34.34 0 00.336-.336.332.332 0 00-.336-.336c-1.316 0-2.226.868-2.744 1.68-.042.056-.07.112-.098.168V49.49a.329.329 0 00-.322-.336c-.196 0-.35.14-.35.336v6.174zm9.331-6.524h-.882v-2.548c0-.168-.182-.336-.364-.336a.361.361 0 00-.336.336v2.548h-.854c-.336 0-.336.168-.336.336s0 .336.336.336h.854v4.998c0 .686.518 1.19 1.204 1.19.168 0 .35-.168.35-.336s-.182-.35-.35-.35c-.168 0-.504-.168-.504-.504v-4.998h.882a.361.361 0 00.336-.336.361.361 0 00-.336-.336zm9.661 0a.332.332 0 00-.336.336v1.008c-.588-.812-1.526-1.344-2.576-1.344-1.806 0-3.248 1.554-3.248 3.43 0 1.876 1.442 3.43 3.248 3.43 1.05 0 1.988-.546 2.576-1.358v1.022a.34.34 0 00.336.336.34.34 0 00.336-.336v-6.188a.332.332 0 00-.336-.336zm-2.912 6.188c-1.4 0-2.576-1.218-2.576-2.758s1.176-2.772 2.576-2.772c1.414 0 2.576 1.232 2.576 2.772 0 1.54-1.162 2.758-2.576 2.758zm7.572.336a.344.344 0 00.686 0v-9.128a.344.344 0 00-.686 0v9.128z" fill="#222"/></svg>