<svg version="1.0" xmlns="http://www.w3.org/2000/svg" width="93.333" height="93.333" viewBox="0 0 70 70"><path d="M57.4 14.7c.1 8.4.2 8.8 2.4 8.9 2 .1 2.2-.3 1.8-2.7-.3-2.2 0-2.9 1.2-3 7.2-.4 6.7.1 7-6.2l.3-5.7H57.4v8.7zM6.3 27.9C0 31.8-1.6 38 1.9 44.9c1.9 3.7 9.2 11.1 11 11.1 1.3 0 8.8-8.6 10.5-12 1.1-2.3 1.4-6.1.7-10.2-.1-1-5.9-6.8-6.8-6.9-5.7-.7-8.5-.5-11 1zm8.7 8.6c.6.8.9 2.3.5 3.5-1 3.1-5.9 2.4-6.3-.9-.6-3.7 3.4-5.5 5.8-2.6z"/><path d="M31 29c-2.4 2.4-2.6 6.3-.4 8.4 1.8 1.9 1.4 1.8 12.9 2 8.8.1 9.3.3 8.7 3.3-.1.5-5.4.8-11.7.8-13-.1-15.5 1-15.5 6.5 0 3.4 3.8 6.5 7 5.7 1.1-.3 2-.1 2 .5 0 .5.5.6 1.1.3 1.4-.9 6.9-1.3 6.9-.5 0 .3 1.6.4 3.5.2s3.5 0 3.5.6c0 2.6-3.2 3.1-19.5 3.1-16.4-.1-16.9-.1-17.2 2C12 64 12.2 64 30.9 64c16.9 0 19-.2 20.4-1.8 2.1-2.3 2.2-6.6.1-8.6-1.7-1.7-1.4-1.7-12.9-2.1-10-.3-9.5-.2-9.5-2 0-1.7-.2-1.7 14.1-1.9 12.1-.2 13.9-1 13.9-6.2 0-4.7-2.8-6.2-11.5-6.2-11.4 0-12.5-.1-12.2-1.5.4-2.1 1.3-2.3 13.4-2.2 11.5.1 13.6-.4 12.6-3.2-.4-1-3.5-1.3-13.4-1.3-11.6 0-13.1.2-14.9 2z"/></svg>